Coordinates
version=1
nRows=17
nColumns=23
inDegrees=yes

Units are S.I. units (second, meters, Newtons, ...)
If the header above contains a line with 'inDegrees', this indicates whether rotational values are in degrees (yes) or radians (no).

endheader
time	pelvis_tilt	pelvis_list	pelvis_rotation	pelvis_tx	pelvis_ty	pelvis_tz	hip_flexion_r	hip_adduction_r	hip_rotation_r	knee_angle_r	knee_angle_r_beta	ankle_angle_r	subtalar_angle_r	mtp_angle_r	hip_flexion_l	hip_adduction_l	hip_rotation_l	knee_angle_l	knee_angle_l_beta	ankle_angle_l	subtalar_angle_l	mtp_angle_l
      7.50000000	      0.80190717	     -3.36571130	     -3.78175571	      2.33251667	      0.92919833	      1.00067816	      5.55728455	      4.37642926	     -9.94519513	     38.45730911	      0.67120667	     23.80792983	     -4.19058423	      0.00000000	     19.79945159	     -9.97036614	     -2.08039562	    107.14706161	      1.87006901	     -4.98465189	    -15.77152925	      0.00000000
      7.50666667	      1.60881260	     -2.71119412	     -3.04821927	      2.33342096	      0.93263343	      1.00069314	      1.65741478	      3.43729900	    -10.85625694	     36.51289835	      0.63727030	     23.48882495	     -2.53994829	      0.00000000	     21.34825285	     -9.38737117	     -1.37080886	    106.05638117	      1.85103304	     -4.43983677	    -15.77516331	      0.00000000
      7.51333333	      1.98460236	     -1.83497400	     -2.49951026	      2.33454361	      0.93597555	      1.00105058	     -1.78514994	      2.43777138	    -11.58588361	     34.41486563	      0.60065272	     22.43118164	     -1.40991638	      0.00000000	     23.15303997	     -8.57401787	     -1.03284811	    104.59273288	      1.82548756	     -3.87667841	    -16.06631235	      0.00000000
      7.52000000	      2.15078777	     -0.89544989	     -2.06864722	      2.33600391	      0.93945765	      1.00164497	     -5.04260649	      1.50025440	    -12.21265782	     32.10956152	      0.56041757	     20.71623565	     -0.51692890	      0.00000000	     24.93816407	     -7.71169815	     -0.98925461	    102.75393174	      1.79339443	     -3.35863181	    -16.56803138	      0.00000000
      7.52666667	      2.07924298	      0.09106792	     -1.73372804	      2.33783306	      0.94299700	      1.00237655	     -8.04819511	      0.60677951	    -12.74695359	     29.66644262	      0.51777710	     18.41904335	      0.19189396	      0.00000000	     26.72977404	     -6.78563393	     -1.17999765	    100.56559063	      1.75520067	     -2.86191433	    -17.22116766	      0.00000000
      7.53333333	      1.82188741	      1.08496546	     -1.52559480	      2.33997426	      0.94658264	      1.00324067	    -10.80927191	     -0.24497931	    -13.18090933	     27.16480260	      0.47411525	     15.52673326	      0.79027939	      0.00000000	     28.45938812	     -5.90538501	     -1.64114435	     98.05001400	      1.71129558	     -2.36608705	    -17.94337717	      0.00000000
      7.54000000	      1.45098126	      2.00779673	     -1.44829515	      2.34236367	      0.95025707	      1.00419702	    -13.36446241	     -0.97855206	    -13.34703458	     24.65475473	      0.43030665	     12.20883167	      1.04301454	      0.00000000	     30.05465108	     -5.19579683	     -2.34740429	     95.23305896	      1.66213044	     -1.88281454	    -18.64481911	      0.00000000
      7.54666667	      0.59145793	      3.00873191	     -1.32087936	      2.34493978	      0.95340784	      1.00484742	    -15.16203882	     -1.90020941	    -13.91193781	     22.56748108	      0.39387685	      8.71595777	      1.54723286	      0.00000000	     32.00166344	     -4.33060514	     -3.13331879	     92.19038911	      1.60902583	     -1.30434694	    -19.02358363	      0.00000000
      7.55333333	     -0.11597744	      3.98849177	     -1.11875373	      2.34778075	      0.95684596	      1.00531682	    -17.06394220	     -2.69409030	    -14.25953363	     20.50216206	      0.35783023	      5.09009916	      1.74048012	      0.00000000	     33.53295476	     -3.44658284	     -3.94986770	     88.83911393	      1.55053504	     -0.80111841	    -19.38262346	      0.00000000
      7.56000000	     -1.05823679	      4.87097646	     -0.93002136	      2.35061519	      0.95997512	      1.00559255	    -18.41027796	     -3.47154528	    -14.65557881	     18.98353804	      0.33132524	      1.53000084	      1.75114178	      0.00000000	     35.11906847	     -2.68059649	     -4.84639341	     85.27775523	      1.48837761	     -0.23044310	    -19.30609855	      0.00000000
      7.56666667	     -2.12455335	      5.67061080	     -0.67143014	      2.35333954	      0.96288224	      1.00563810	    -19.32251026	     -4.22659371	    -15.17321251	     18.05668756	      0.31514865	     -1.78075600	      1.67931430	      0.00000000	     36.65487657	     -1.96520770	     -5.74018033	     81.51590930	      1.42272101	      0.36872312	    -18.81644083	      0.00000000
      7.57333333	     -3.19983612	      6.39523362	     -0.28249266	      2.35591441	      0.96563317	      1.00532959	    -19.92281382	     -4.93976848	    -15.77815465	     17.77518971	      0.31023559	     -4.64846720	      1.42164829	      0.00000000	     38.01752104	     -1.22450790	     -6.57176240	     77.55371851	      1.35356774	      0.98814693	    -17.89511606	      0.00000000
      7.58000000	     -4.24032062	      7.02450579	      0.21301474	      2.35821734	      0.96820348	      1.00473303	    -20.22846815	     -5.60375648	    -16.40603162	     18.21374300	      0.31788978	     -6.99307071	      0.98919397	      0.00000000	     39.16561520	     -0.45464593	     -7.31126184	     73.40649429	      1.28118502	      1.59705763	    -16.57448472	      0.00000000
      7.58666667	     -5.20976074	      7.62544486	      0.82880417	      2.36032621	      0.97054631	      1.00377677	    -20.33072545	     -6.25590811	    -16.97187853	     19.30324389	      0.33690516	     -8.77337851	      0.33187866	      0.00000000	     40.04164984	      0.39226070	     -8.05057413	     69.08448490	      1.20575172	      2.19866780	    -14.86598163	      0.00000000
      7.59333333	     -5.92177803	      8.18648969	      1.45218207	      2.36206549	      0.97276673	      1.00269753	    -20.38476192	     -6.91451768	    -17.40020972	     21.10615808	      0.36837195	     -9.83989078	     -0.42895890	      0.00000000	     40.46552545	      1.21639668	     -8.88644615	     64.63423174	      1.12808015	      2.95004842	    -12.52710199	      0.00000000
      7.60000000	     -6.57965933	      8.72399273	      2.19845677	      2.36341699	      0.97462970	      1.00125400	    -20.22970474	     -7.53794654	    -17.65362706	     23.51256343	      0.41037165	    -10.50872508	     -1.52598708	      0.00000000	     40.66830633	      2.24465065	     -9.55672264	     60.03934777	      1.04788430	      3.53154589	    -10.27536969	      0.00000000
      7.60666667	     -7.00728754	      9.18478012	      2.95894333	      2.36440021	      0.97627004	      0.99963348	    -20.06559601	     -8.05736062	    -17.63682378	     26.42296446	      0.46116773	    -10.74594216	     -2.74127037	      0.00000000	     40.47263411	      3.26265233	    -10.25133197	     55.38264925	      0.96660958	      4.07596425	     -7.83945817	      0.00000000
